<svg width="94" height="21" viewBox="0 0 94 21" fill="none" xmlns="http://www.w3.org/2000/svg">
<path d="M16.94 20H12.494L5.058 8.742V20H0.612V1.748H5.058L12.494 13.058V1.748H16.94V20ZM33.8388 12.512C33.8388 12.928 33.8128 13.3613 33.7608 13.812H23.6988C23.7681 14.7133 24.0541 15.4067 24.5568 15.892C25.0768 16.36 25.7094 16.594 26.4548 16.594C27.5641 16.594 28.3354 16.126 28.7688 15.19H33.5008C33.2581 16.1433 32.8161 17.0013 32.1748 17.764C31.5508 18.5267 30.7621 19.1247 29.8088 19.558C28.8554 19.9913 27.7894 20.208 26.6108 20.208C25.1894 20.208 23.9241 19.9047 22.8148 19.298C21.7054 18.6913 20.8388 17.8247 20.2148 16.698C19.5908 15.5713 19.2788 14.254 19.2788 12.746C19.2788 11.238 19.5821 9.92067 20.1888 8.794C20.8128 7.66733 21.6794 6.80067 22.7888 6.194C23.8981 5.58733 25.1721 5.284 26.6108 5.284C28.0148 5.284 29.2628 5.57867 30.3548 6.168C31.4468 6.75733 32.2961 7.598 32.9028 8.69C33.5268 9.782 33.8388 11.056 33.8388 12.512ZM29.2888 11.342C29.2888 10.5793 29.0288 9.97267 28.5088 9.522C27.9888 9.07133 27.3388 8.846 26.5588 8.846C25.8134 8.846 25.1808 9.06267 24.6608 9.496C24.1581 9.92933 23.8461 10.5447 23.7248 11.342H29.2888ZM40.6303 7.546C41.0463 6.87 41.6443 6.324 42.4243 5.908C43.2043 5.492 44.0969 5.284 45.1023 5.284C46.2983 5.284 47.3816 5.58733 48.3523 6.194C49.3229 6.80067 50.0856 7.66733 50.6403 8.794C51.2123 9.92067 51.4983 11.2293 51.4983 12.72C51.4983 14.2107 51.2123 15.528 50.6403 16.672C50.0856 17.7987 49.3229 18.674 48.3523 19.298C47.3816 19.9047 46.2983 20.208 45.1023 20.208C44.0796 20.208 43.1869 20.0087 42.4243 19.61C41.6616 19.194 41.0636 18.648 40.6303 17.972V20H36.1843V0.76H40.6303V7.546ZM46.9743 12.72C46.9743 11.6107 46.6623 10.744 46.0383 10.12C45.4316 9.47867 44.6776 9.158 43.7763 9.158C42.8923 9.158 42.1383 9.47867 41.5143 10.12C40.9076 10.7613 40.6043 11.6367 40.6043 12.746C40.6043 13.8553 40.9076 14.7307 41.5143 15.372C42.1383 16.0133 42.8923 16.334 43.7763 16.334C44.6603 16.334 45.4143 16.0133 46.0383 15.372C46.6623 14.7133 46.9743 13.8293 46.9743 12.72ZM68.1568 5.492V20H63.7108V18.024C63.2601 18.6653 62.6448 19.1853 61.8648 19.584C61.1021 19.9653 60.2528 20.156 59.3168 20.156C58.2074 20.156 57.2281 19.9133 56.3788 19.428C55.5294 18.9253 54.8708 18.206 54.4028 17.27C53.9348 16.334 53.7008 15.2333 53.7008 13.968V5.492H58.1208V13.37C58.1208 14.3407 58.3721 15.0947 58.8748 15.632C59.3774 16.1693 60.0534 16.438 60.9028 16.438C61.7694 16.438 62.4541 16.1693 62.9568 15.632C63.4594 15.0947 63.7108 14.3407 63.7108 13.37V5.492H68.1568ZM75.7963 0.76V20H71.3503V0.76H75.7963ZM78.1343 12.72C78.1343 11.2293 78.4116 9.92067 78.9663 8.794C79.5383 7.66733 80.3096 6.80067 81.2803 6.194C82.2509 5.58733 83.3343 5.284 84.5303 5.284C85.5529 5.284 86.4456 5.492 87.2083 5.908C87.9883 6.324 88.5863 6.87 89.0023 7.546V5.492H93.4483V20H89.0023V17.946C88.5689 18.622 87.9623 19.168 87.1823 19.584C86.4196 20 85.5269 20.208 84.5043 20.208C83.3256 20.208 82.2509 19.9047 81.2803 19.298C80.3096 18.674 79.5383 17.7987 78.9663 16.672C78.4116 15.528 78.1343 14.2107 78.1343 12.72ZM89.0023 12.746C89.0023 11.6367 88.6903 10.7613 88.0663 10.12C87.4596 9.47867 86.7143 9.158 85.8303 9.158C84.9463 9.158 84.1923 9.47867 83.5683 10.12C82.9616 10.744 82.6583 11.6107 82.6583 12.72C82.6583 13.8293 82.9616 14.7133 83.5683 15.372C84.1923 16.0133 84.9463 16.334 85.8303 16.334C86.7143 16.334 87.4596 16.0133 88.0663 15.372C88.6903 14.7307 89.0023 13.8553 89.0023 12.746Z" fill="#8FE5FF"/>
</svg>
